<mxfile host="app.diagrams.net" modified="2023-11-08T09:10:36.393Z" agent="Mozilla/5.0 (Windows NT 10.0; Win64; x64) AppleWebKit/537.36 (KHTML, like Gecko) Chrome/119.0.0.0 Safari/537.36" version="22.0.8" etag="7HT7MMwdeWfVy9Orf-CI" type="github">
  <diagram name="Страница — 1" id="5b8a4ggjyo14M0t5gN5V">
    <mxGraphModel>
      <root>
        <mxCell id="0" />
        <mxCell id="1" parent="0" />
      </root>
    </mxGraphModel>
  </diagram>
</mxfile>
